<?xml version="1.0" standalone="no"?>
<!DOCTYPE svg PUBLIC "-//W3C//DTD SVG 1.1//EN" "http://www.w3.org/Graphics/SVG/1.1/DTD/svg11.dtd" >
<svg xmlns="http://www.w3.org/2000/svg" xmlns:xlink="http://www.w3.org/1999/xlink" version="1.1">
<metadata>
Created by FontForge 20170731 at Mon May 16 23:58:25 2011
 By Aleksey,,,
Copyright (c) 2011 by Michael Spitz. All rights reserved.
</metadata>
<defs>
<font id="ONRAMP" horiz-adv-x="445" >
  <font-face 
    font-family="ONRAMP"
    font-weight="400"
    font-stretch="normal"
    units-per-em="1000"
    panose-1="0 0 0 0 0 0 0 0 0 0"
    ascent="800"
    descent="-200"
    x-height="437"
    cap-height="437"
    bbox="-48 -94 638 675"
    underline-thickness="50"
    underline-position="-200"
    unicode-range="U+0020-FB02"
  />
<missing-glyph horiz-adv-x="264" 
 />
    <glyph glyph-name=".notdef" horiz-adv-x="264" 
 />
    <glyph glyph-name=".null" horiz-adv-x="0" 
 />
    <glyph glyph-name="nonmarkingreturn" horiz-adv-x="264" 
 />
    <glyph glyph-name="space" unicode=" " horiz-adv-x="264" 
 />
    <glyph glyph-name="space" unicode="&#xa0;" horiz-adv-x="264" 
 />
    <glyph glyph-name="exclam" unicode="!" horiz-adv-x="219" 
d="M56 93h103v-93h-103v93v0zM159 140h-103v298h103v-298v0z" />
    <glyph glyph-name="quotedbl" unicode="&#x22;" horiz-adv-x="344" 
d="M155 345h-67v149h67v-149v0zM256 345h-67v149h67v-149v0z" />
    <glyph glyph-name="numbersign" unicode="#" horiz-adv-x="379" 
d="M331 243h-41v-42h41v-84h-41v-41h-84v41h-42v-41h-84v41h-41v84h41v42h-41v84h41v41h84v-41h42v41h84v-41h41v-84zM206 201v42h-42v-42h42z" />
    <glyph glyph-name="dollar" unicode="$" horiz-adv-x="348" 
d="M135 322v-64h125q17 0 29.5 -11t12.5 -26v-143q0 -16 -12.5 -27t-29.5 -11h-42v-76h-84v76h-83v76h166v67h-124q-18 0 -30 11t-12 27v139q0 16 12 27t30 11h41v75h84v-75h84v-76h-167z" />
    <glyph glyph-name="percent" unicode="%" horiz-adv-x="492" 
d="M299 437h108l-205 -437h-108zM87 296h96q10 0 17 6.5t7 15.5v98q0 8 -7 14.5t-17 6.5h-96q-10 0 -17 -6.5t-7 -14.5v-98q0 -9 7 -15.5t17 -6.5zM111 394h48v-54h-48v54zM318 0h96q10 0 17 6t7 15v98q0 9 -7 15t-17 6h-96q-10 0 -17 -6t-7 -15v-98q0 -9 7 -15t17 -6z
M342 97h48v-54h-48v54zM407 437l-205 -437z" />
    <glyph glyph-name="ampersand" unicode="&#x26;" horiz-adv-x="504" 
d="M463 85h-45v-39q0 -20 -15 -33t-36 -13h-228q-22 0 -37 13t-15 33v345q0 19 15 32.5t37 13.5h228q21 0 36 -13.5t15 -32.5v-103h-103v56h-125v-78h94v-93h-94v-80h125v54h148v-62z" />
    <glyph glyph-name="quotesingle" unicode="'" horiz-adv-x="257" 
d="M155 345h-67v149h67v-149v0z" />
    <glyph glyph-name="parenleft" unicode="(" horiz-adv-x="344" 
d="M272 530v-93h-82v-437h82v-94h-133q-22 0 -37 13.5t-15 33.5v531q0 19 15 32.5t37 13.5h133z" />
    <glyph glyph-name="parenright" unicode=")" horiz-adv-x="344" 
d="M204 530q22 0 37 -13.5t15 -32.5v-531q0 -20 -15 -33.5t-37 -13.5h-133v94h82v437h-82v93h133z" />
    <glyph glyph-name="asterisk" unicode="*" horiz-adv-x="234" 
d="M159 419v0l32 -21l-24 -35l-26 17v-35h-43v35l-26 -17l-25 35l33 21v0l-33 21l25 35l26 -17v36h43v-36l26 17l24 -35l-32 -21v0z" />
    <glyph glyph-name="plus" unicode="+" horiz-adv-x="414" 
d="M330 265v-84h-79v-79h-84v79h-80v84h80v79h84v-79h79v0z" />
    <glyph glyph-name="comma" unicode="," horiz-adv-x="156" 
d="M116 0q0 -20 -15 -33t-37 -13h-33v139h85v-93v0z" />
    <glyph glyph-name="hyphen" unicode="-" horiz-adv-x="367" 
d="M87 261h188v-84h-188v84v0z" />
    <glyph glyph-name="period" unicode="." horiz-adv-x="179" 
d="M45 93h84v-93h-84v93v0z" />
    <glyph glyph-name="slash" unicode="/" horiz-adv-x="399" 
d="M226 438h108l-130 -438h-109l131 438v0z" />
    <glyph glyph-name="zero" unicode="0" horiz-adv-x="398" 
d="M306 438q21 0 36 -13.5t15 -33.5v-344q0 -20 -15 -33.5t-36 -13.5h-208q-21 0 -36 13.5t-15 33.5v344q0 20 15 33.5t36 13.5h208zM255 345h-105v-252h105v252z" />
    <glyph glyph-name="one" unicode="1" horiz-adv-x="282" 
d="M31 437h210v-437h-103v344h-107v93v0z" />
    <glyph glyph-name="two" unicode="2" horiz-adv-x="414" 
d="M150 171v-79h228v-92h-331v217q0 20 15 33.5t37 13.5h176v79h-228v93h280q21 0 36 -13.5t15 -32.5v-219h-228z" />
    <glyph glyph-name="three" unicode="3" horiz-adv-x="398" 
d="M306 437q21 0 36 -13.5t15 -32.5v-345q0 -20 -15 -33t-36 -13h-259v93h66h141v79h-141h-66v93h66h141v79h-141h-66v93h259v0z" />
    <glyph glyph-name="four" unicode="4" horiz-adv-x="399" 
d="M254 437h103v-437h-103v146h1h-1h-207v291h102v-198h105v198v0z" />
    <glyph glyph-name="five" unicode="5" horiz-adv-x="398" 
d="M151 346v-78h153q21 0 36 -13t15 -33v-175q0 -20 -15 -33.5t-36 -13.5h-257v93h205v82h-205v264h308v-93h-204z" />
    <glyph glyph-name="six" unicode="6" horiz-adv-x="398" 
d="M355 437v-93h-206v-79h154q22 0 37 -13.5t15 -33.5v-172q0 -20 -15 -33t-37 -13h-205q-21 0 -36 13t-15 33v345q0 19 15 32.5t36 13.5h257zM149 172v-79h103v79h-103z" />
    <glyph glyph-name="seven" unicode="7" horiz-adv-x="391" 
d="M39 439h332l-193 -438v0h-103v0v0l145 345h-181v93v0z" />
    <glyph glyph-name="eight" unicode="8" horiz-adv-x="399" 
d="M305 438q21 0 36 -13.5t15 -33.5v-344q0 -20 -15 -33.5t-36 -13.5h-206q-21 0 -36 13.5t-15 33.5v344q0 20 15 33.5t36 13.5h206zM253 172h-102v-79h102v79zM151 266h102v79h-102v-79z" />
    <glyph glyph-name="nine" unicode="9" horiz-adv-x="391" 
d="M295 439q21 0 36 -13.5t15 -33.5v-344q0 -20 -15 -33.5t-36 -13.5l-256 -1v94h205v79h-154q-21 0 -36 13.5t-15 33.5v172q0 20 15 33.5t36 13.5h205zM244 346h-103v-80h103v80z" />
    <glyph glyph-name="colon" unicode=":" horiz-adv-x="179" 
d="M48 299h85v-93h-85v93v0zM48 138h85v-93h-85v93z" />
    <glyph glyph-name="semicolon" unicode=";" horiz-adv-x="187" 
d="M56 299h85v-93h-85v93zM141 46v92h-85v-138h33q22 0 37 13t15 33z" />
    <glyph glyph-name="less" unicode="&#x3c;" horiz-adv-x="430" 
d="M344 293h-1l-138 -74l139 -74v-108l-279 149v66l279 149v-108v0z" />
    <glyph glyph-name="equal" unicode="=" horiz-adv-x="414" 
d="M86 258v83h243v-83h-243v0zM86 98v83h243v-83h-243v0z" />
    <glyph glyph-name="greater" unicode="&#x3e;" horiz-adv-x="461" 
d="M104 293v108l279 -149v-66l-279 -149v108l139 74l-138 74h-1v0z" />
    <glyph glyph-name="question" unicode="?" horiz-adv-x="297" 
d="M47 94h104v-94h-104v94zM151 174v-34h-104v81q0 19 15 32.5t37 13.5h98v78h-150v93h202q21 0 36 -13.5t15 -33.5v-170q0 -20 -15 -33.5t-36 -13.5h-98z" />
    <glyph glyph-name="at" unicode="@" horiz-adv-x="500" 
d="M116 -1q-20 0 -33 12t-13 29v141q0 17 13 29t33 12h182v-141h46v182h-274v82h324q17 0 29 -13.5t12 -32.5v-258q0 -17 -13 -29t-32 -12h-270zM161 81h46v59h-46v-59z" />
    <glyph glyph-name="A" unicode="A" 
d="M343 0l-34 103h-162l-35 -103h-106l143 436h157l143 -436h-106zM228 344l-50 -147h99z" />
    <glyph glyph-name="B" unicode="B" horiz-adv-x="414" 
d="M334 437q20 0 35.5 -13.5t15.5 -33.5v-344q0 -20 -15.5 -33t-35.5 -13h-296v437h296zM140 343v-78h143v78h-143zM283 92v79h-143v-79h143z" />
    <glyph glyph-name="C" unicode="C" horiz-adv-x="390" 
d="M259 288v55h-125v-251h125v55h103v-101q0 -20 -15 -33t-37 -13h-227q-22 0 -36.5 13t-14.5 33v344q0 20 14.5 33.5t36.5 13.5h227q22 0 37 -13.5t15 -33.5v-102h-103z" />
    <glyph glyph-name="D" unicode="D" horiz-adv-x="422" 
d="M335 437q21 0 36 -13.5t15 -33.5v-344q0 -20 -15 -33t-36 -13h-295v437h295zM283 343h-141v-251h141v251z" />
    <glyph glyph-name="E" unicode="E" horiz-adv-x="407" 
d="M376 343h-227v-80h125v-92h-125v-79h227v-92h-328v437h328v-94v0z" />
    <glyph glyph-name="F" unicode="F" horiz-adv-x="399" 
d="M375 343h-227v-80h125v-92h-125v-171h-101v437h328v-94v0z" />
    <glyph glyph-name="G" unicode="G" horiz-adv-x="407" 
d="M281 289v56h-147v-252h147v55h-63v93h165v-93v-101q0 -20 -15 -33.5t-36 -13.5h-249q-21 0 -36 13.5t-15 33.5v344q0 20 15 33.5t36 13.5h249q21 0 36 -13.5t15 -33.5v-102h-102z" />
    <glyph glyph-name="H" unicode="H" horiz-adv-x="406" 
d="M276 437h101v-437h-101v147h-142v-147h-103v437h103v-197h142v197v0z" />
    <glyph glyph-name="I" unicode="I" horiz-adv-x="219" 
d="M167 0h-103v437h103v-437z" />
    <glyph glyph-name="J" unicode="J" horiz-adv-x="398" 
d="M363 437v-390q0 -20 -15 -33.5t-36 -13.5h-229q-21 0 -36 13.5t-15 33.5v101v93h103v-148h124v344h104z" />
    <glyph glyph-name="K" unicode="K" horiz-adv-x="485" 
d="M445 0h-136l-87 125l-87 -125h-87v437h103v-210l140 210h148l-147 -210h3l150 -227v0z" />
    <glyph glyph-name="L" unicode="L" horiz-adv-x="367" 
d="M144 437v-344h192v-93h-296v437h104v0z" />
    <glyph glyph-name="M" unicode="M" horiz-adv-x="539" 
d="M347 437h159v-437h-102v342l-98 -183h-66l-98 183l1 -342h-103v437h159l74 -113l74 113v0z" />
    <glyph glyph-name="N" unicode="N" horiz-adv-x="461" 
d="M429 437v-437h-90l-196 296v-296h-102v437h147l138 -210v210h103v0z" />
    <glyph glyph-name="O" unicode="O" horiz-adv-x="461" 
d="M358 0h-250q-21 0 -36 13t-15 33v345q0 19 15 32.5t36 13.5h250q21 0 36 -13.5t15 -32.5v-345q0 -20 -15 -33t-36 -13zM160 93h146v251h-146v-251z" />
    <glyph glyph-name="P" unicode="P" horiz-adv-x="437" 
d="M347 437q21 0 36 -13.5t15 -32.5v-194q0 -20 -15 -33.5t-36 -13.5h-195v-150h-104v437h299zM295 344h-143v-101h143v101z" />
    <glyph glyph-name="Q" unicode="Q" 
d="M283 -67l-44 67h-140q-22 0 -37 13t-15 33v345q0 19 15 32.5t37 13.5h250q22 0 37 -13.5t15 -32.5v-345q0 -17 -12 -30t-30 -16l45 -67h-121zM298 93v251h-148v-251h148z" />
    <glyph glyph-name="R" unicode="R" 
d="M326 0l-100 150h-74v-150h-103v437h297q22 0 37 -13.5t15 -32.5v-194q0 -20 -15 -33.5t-37 -13.5l100 -150h-120zM152 243h143v101h-143v-101z" />
    <glyph glyph-name="S" unicode="S" horiz-adv-x="390" 
d="M305 0h-257v93h205v82h-153q-21 0 -36.5 13.5t-15.5 33.5v171q0 19 15.5 32.5t36.5 13.5h256v-93h-204v-77h153q21 0 36 -13.5t15 -33.5v-175q0 -20 -15 -33.5t-36 -13.5z" />
    <glyph glyph-name="T" unicode="T" horiz-adv-x="367" 
d="M337 437v-92h-101v-345h-103v345h-101v92h305v0z" />
    <glyph glyph-name="U" unicode="U" horiz-adv-x="453" 
d="M352 0h-251q-22 0 -37 13t-15 33v392h104v-345h147v345h104v-392q0 -20 -15 -33t-37 -13z" />
    <glyph glyph-name="V" unicode="V" 
d="M330 437h105l-130 -437h-158l-131 437h105l105 -342l104 342v0z" />
    <glyph glyph-name="W" unicode="W" horiz-adv-x="555" 
d="M206 0h-159v437h102v-342l98 183h66l98 -183v342h102v-437h-159l-74 114l-74 -114v0z" />
    <glyph glyph-name="X" unicode="X" horiz-adv-x="500" 
d="M469 437l-151 -218l151 -219h-135l-83 120l-84 -120h-135l151 219l-151 218h135l84 -120l83 120h135v0z" />
    <glyph glyph-name="Y" unicode="Y" horiz-adv-x="484" 
d="M464 437l-164 -237v-200h-103v200l-164 237h141l75 -107l74 107h141v0z" />
    <glyph glyph-name="Z" unicode="Z" horiz-adv-x="383" 
d="M32 437h314v-81l-181 -263h181v-93h-314v96l176 248h-176v93v0z" />
    <glyph glyph-name="bracketleft" unicode="[" horiz-adv-x="344" 
d="M197 437v-438h67v-93h-169v624h169v-93h-67z" />
    <glyph glyph-name="backslash" unicode="\" horiz-adv-x="391" 
d="M187 438l131 -438h-109l-130 438h108v0z" />
    <glyph glyph-name="bracketright" unicode="]" horiz-adv-x="361" 
d="M97 437v93h169v-624h-169v93h67v438h-67z" />
    <glyph glyph-name="asciicircum" unicode="^" horiz-adv-x="470" 
d="M264 494l149 -228h-108l-74 114l-74 -114h-108l149 228h66v0z" />
    <glyph glyph-name="underscore" unicode="_" horiz-adv-x="414" 
d="M55 0h310v-84h-310v84v0z" />
    <glyph glyph-name="grave" unicode="`" horiz-adv-x="211" 
d="M115 494l33 -149l1 -1h-67l-34 150h67v0z" />
    <glyph glyph-name="a" unicode="a" 
d="M343 0l-34 103h-162l-35 -103h-106l143 436h157l143 -436h-106zM228 344l-50 -147h99z" />
    <glyph glyph-name="b" unicode="b" horiz-adv-x="414" 
d="M334 437q20 0 35.5 -13.5t15.5 -33.5v-344q0 -20 -15.5 -33t-35.5 -13h-296v437h296zM140 343v-78h143v78h-143zM283 92v79h-143v-79h143z" />
    <glyph glyph-name="c" unicode="c" horiz-adv-x="390" 
d="M259 288v55h-125v-251h125v55h103v-101q0 -20 -15 -33t-37 -13h-227q-22 0 -36.5 13t-14.5 33v344q0 20 14.5 33.5t36.5 13.5h227q22 0 37 -13.5t15 -33.5v-102h-103z" />
    <glyph glyph-name="d" unicode="d" horiz-adv-x="422" 
d="M335 437q21 0 36 -13.5t15 -33.5v-344q0 -20 -15 -33t-36 -13h-295v437h295zM283 343h-141v-251h141v251z" />
    <glyph glyph-name="e" unicode="e" horiz-adv-x="407" 
d="M376 343h-227v-80h125v-92h-125v-79h227v-92h-328v437h328v-94v0z" />
    <glyph glyph-name="f" unicode="f" horiz-adv-x="399" 
d="M375 343h-227v-80h125v-92h-125v-171h-101v437h328v-94v0z" />
    <glyph glyph-name="g" unicode="g" horiz-adv-x="407" 
d="M281 289v56h-147v-252h147v55h-63v93h165v-93v-101q0 -20 -15 -33.5t-36 -13.5h-249q-21 0 -36 13.5t-15 33.5v344q0 20 15 33.5t36 13.5h249q21 0 36 -13.5t15 -33.5v-102h-102z" />
    <glyph glyph-name="h" unicode="h" horiz-adv-x="406" 
d="M276 437h101v-437h-101v147h-142v-147h-103v437h103v-197h142v197v0z" />
    <glyph glyph-name="i" unicode="i" horiz-adv-x="219" 
d="M167 0h-103v437h103v-437z" />
    <glyph glyph-name="j" unicode="j" horiz-adv-x="398" 
d="M363 437v-390q0 -20 -15 -33.5t-36 -13.5h-229q-21 0 -36 13.5t-15 33.5v101v93h103v-148h124v344h104z" />
    <glyph glyph-name="k" unicode="k" horiz-adv-x="485" 
d="M445 0h-136l-87 125l-87 -125h-87v437h103v-210l140 210h148l-147 -210h3l150 -227v0z" />
    <glyph glyph-name="l" unicode="l" horiz-adv-x="367" 
d="M144 437v-344h192v-93h-296v437h104v0z" />
    <glyph glyph-name="m" unicode="m" horiz-adv-x="539" 
d="M347 437h159v-437h-102v342l-98 -183h-66l-98 183l1 -342h-103v437h159l74 -113l74 113v0z" />
    <glyph glyph-name="n" unicode="n" horiz-adv-x="461" 
d="M429 437v-437h-90l-196 296v-296h-102v437h147l138 -210v210h103v0z" />
    <glyph glyph-name="o" unicode="o" horiz-adv-x="461" 
d="M358 0h-250q-21 0 -36 13t-15 33v345q0 19 15 32.5t36 13.5h250q21 0 36 -13.5t15 -32.5v-345q0 -20 -15 -33t-36 -13zM160 93h146v251h-146v-251z" />
    <glyph glyph-name="p" unicode="p" horiz-adv-x="437" 
d="M347 437q21 0 36 -13.5t15 -32.5v-194q0 -20 -15 -33.5t-36 -13.5h-195v-150h-104v437h299zM295 344h-143v-101h143v101z" />
    <glyph glyph-name="q" unicode="q" 
d="M283 -67l-44 67h-140q-22 0 -37 13t-15 33v345q0 19 15 32.5t37 13.5h250q22 0 37 -13.5t15 -32.5v-345q0 -17 -12 -30t-30 -16l45 -67h-121zM298 93v251h-148v-251h148z" />
    <glyph glyph-name="r" unicode="r" 
d="M326 0l-100 150h-74v-150h-103v437h297q22 0 37 -13.5t15 -32.5v-194q0 -20 -15 -33.5t-37 -13.5l100 -150h-120zM152 243h143v101h-143v-101z" />
    <glyph glyph-name="s" unicode="s" horiz-adv-x="390" 
d="M305 0h-257v93h205v82h-153q-21 0 -36.5 13.5t-15.5 33.5v171q0 19 15.5 32.5t36.5 13.5h256v-93h-204v-77h153q21 0 36 -13.5t15 -33.5v-175q0 -20 -15 -33.5t-36 -13.5z" />
    <glyph glyph-name="t" unicode="t" horiz-adv-x="367" 
d="M337 437v-92h-101v-345h-103v345h-101v92h305v0z" />
    <glyph glyph-name="u" unicode="u" horiz-adv-x="453" 
d="M352 0h-251q-22 0 -37 13t-15 33v392h104v-345h147v345h104v-392q0 -20 -15 -33t-37 -13z" />
    <glyph glyph-name="v" unicode="v" 
d="M330 437h105l-130 -437h-158l-131 437h105l105 -342l104 342v0z" />
    <glyph glyph-name="w" unicode="w" horiz-adv-x="555" 
d="M206 0h-159v437h102v-342l98 183h66l98 -183v342h102v-437h-159l-74 114l-74 -114v0z" />
    <glyph glyph-name="x" unicode="x" horiz-adv-x="500" 
d="M469 437l-151 -218l151 -219h-135l-83 120l-84 -120h-135l151 219l-151 218h135l84 -120l83 120h135v0z" />
    <glyph glyph-name="y" unicode="y" horiz-adv-x="484" 
d="M464 437l-164 -237v-200h-103v200l-164 237h141l75 -107l74 107h141v0z" />
    <glyph glyph-name="z" unicode="z" horiz-adv-x="383" 
d="M32 437h314v-81l-181 -263h181v-93h-314v96l176 248h-176v93v0z" />
    <glyph glyph-name="braceleft" unicode="{" horiz-adv-x="453" 
d="M301 438v-438h82v-93h-133q-22 0 -37 13.5t-15 33.5v209h-102v113h102v209q0 19 15 32.5t37 13.5h133v-93h-82z" />
    <glyph glyph-name="bar" unicode="|" horiz-adv-x="234" 
d="M171 -93h-103v623h103v-623v0z" />
    <glyph glyph-name="braceright" unicode="}" horiz-adv-x="430" 
d="M71 438v93h133q22 0 37 -13.5t15 -32.5v-209h102v-113h-102v-209q0 -20 -15 -33.5t-37 -13.5h-133v93h82v438h-82z" />
    <glyph glyph-name="asciitilde" unicode="~" horiz-adv-x="386" 
d="M316 492l1 -12v-91l-86 -46l-86 45l-85 -45v103l85 46l86 -46l85 46v0z" />
    <glyph glyph-name="exclamdown" unicode="&#xa1;" horiz-adv-x="218" 
d="M0 345v93h103v-93h-103zM103 298v-298h-103v298h103z" />
    <glyph glyph-name="cent" unicode="&#xa2;" horiz-adv-x="367" 
d="M250 276v45h-102v-205h102v45h84v-83q0 -16 -12.5 -27t-29.5 -11h-51v-74h-84v74h-51q-17 0 -29.5 11t-12.5 27v281q0 16 12.5 27t29.5 11h51v78h84v-78h51q17 0 29.5 -11t12.5 -27v-83h-84z" />
    <glyph glyph-name="sterling" unicode="&#xa3;" horiz-adv-x="299" 
d="M243 115v-75h-240h-1v127h-50v75h50v158q0 16 12.5 27t29.5 11h120q17 0 29 -11t12 -27v-82h-83v45h-36v-121h77v-75h-77v-52h157z" />
    <glyph glyph-name="yen" unicode="&#xa5;" horiz-adv-x="476" 
d="M410 397l-134 -194h64v-75h-64v-88h-84v88h-64v75h64l-134 194h97v0l79 -114l79 114h97v0z" />
    <glyph glyph-name="dieresis" unicode="&#xa8;" horiz-adv-x="258" 
d="M0 494v76h75v-76h-75zM122 494v76h76v-76h-76z" />
    <glyph glyph-name="copyright" unicode="&#xa9;" horiz-adv-x="184" 
d="M139 309h-129q-10 0 -10 10v148q0 9 10 9h129q10 0 10 -9v-148q0 -10 -10 -10zM20 328h109v130h-109v-130zM108 407v21q0 9 -10 9h-46q-11 0 -11 -9v-70q0 -9 11 -9h46q10 0 10 9v21h-21v-11h-25v50h25v-11h21z" />
    <glyph glyph-name="registered" unicode="&#xae;" horiz-adv-x="213" 
d="M121 349l-20 30q10 0 10 10v39q0 9 -10 9h-60v-88h21v30h15l20 -30h24zM62 418h28v-20h-28v20zM142 309h-132q-11 0 -11 10v148q0 9 11 9h132q11 0 11 -9v-148q0 -10 -11 -10zM20 328h112v130h-112v-130z" />
    <glyph glyph-name="degree" unicode="&#xb0;" horiz-adv-x="121" 
d="M86 347h-75q-11 0 -11 9v73q0 10 11 10h75q10 0 10 -10v-73q0 -9 -10 -9zM21 366h54v54h-54v-54z" />
    <glyph glyph-name="plusminus" unicode="&#xb1;" horiz-adv-x="350" 
d="M292 319v-84h-79v-79h-84v79h-80v84h80v80h84v-80h79zM49 39v84h243v-84h-243v0z" />
    <glyph glyph-name="twosuperior" unicode="&#xb2;" 
d="M104 171v-79h228v-92h-331v217q0 20 15 33.5t37 13.5h176v79h-228v93h280q21 0 36 -13.5t15 -32.5v-219h-228z" />
    <glyph glyph-name="threesuperior" unicode="&#xb3;" 
d="M260 437q21 0 36 -13.5t15 -32.5v-345q0 -20 -15 -33t-36 -13h-259v93h66h141v79h-141h-66v93h66h141v79h-141h-66v93h259v0z" />
    <glyph glyph-name="acute" unicode="&#xb4;" horiz-adv-x="199" 
d="M79 494h67l-34 -150h-67l1 1l33 149v0z" />
    <glyph glyph-name="periodcentered" unicode="&#xb7;" horiz-adv-x="141" 
d="M0 265h84v-93h-84v93v0z" />
    <glyph glyph-name="onesuperior" unicode="&#xb9;" horiz-adv-x="363" 
d="M39 437h210v-437h-103v344h-107v93v0z" />
    <glyph glyph-name="ordmasculine" unicode="&#xba;" horiz-adv-x="494" 
d="M371 0h-250q-21 0 -36 13t-15 33v345q0 19 15 32.5t36 13.5h250q21 0 36 -13.5t15 -32.5v-345q0 -20 -15 -33t-36 -13zM173 93h146v251h-146v-251z" />
    <glyph glyph-name="questiondown" unicode="&#xbf;" horiz-adv-x="359" 
d="M63 438h104v-94h-104v94zM265 264q21 0 36 -13.5t15 -33.5v-170q0 -20 -15 -33.5t-36 -13.5h-202v93h150v78h-98q-22 0 -37 13.5t-15 32.5v81h104v-34h98z" />
    <glyph glyph-name="Agrave" unicode="&#xc0;" horiz-adv-x="500" 
d="M174 104h162l34 -104h107l-143 437h-158l-144 -437h107l35 104v0zM304 197h-98l49 147l49 -147v0zM334 569v-76l-158 33v76l158 -33v0z" />
    <glyph glyph-name="Aacute" unicode="&#xc1;" horiz-adv-x="500" 
d="M370 0l-34 104h-163l-34 -104h-107l144 437h157l144 -437h-107zM255 344l-50 -147h99zM176 569l157 33v-76l-157 -33v76z" />
    <glyph glyph-name="Acircumflex" unicode="&#xc2;" horiz-adv-x="484" 
d="M361 0l-34 104h-163l-34 -104h-107l144 437h157l144 -437h-107zM245 344l-49 -147h99zM245 526l-93 -33v76l93 33l94 -33v-76z" />
    <glyph glyph-name="Atilde" unicode="&#xc3;" horiz-adv-x="492" 
d="M362 0l-34 104h-162l-35 -104h-107l144 437h158l143 -437h-107zM247 344l-50 -147h99zM341 602v-75l-63 -34l-63 34l-62 -34v76l62 33l63 -33z" />
    <glyph glyph-name="Adieresis" unicode="&#xc4;" horiz-adv-x="566" 
d="M141 104l-34 -104h-107l143 437h158l144 -437h-107l-34 104h-163zM272 197l-50 147l-49 -147h99zM123 495v76h76v-76h-76zM246 495v76h75v-76h-75z" />
    <glyph glyph-name="AE" unicode="&#xc6;" horiz-adv-x="633" 
d="M575 344h-227v-80h125v-93h-125v-78h227v-93h-329v104h-81l-35 -104h-107l144 437h79h329v-93zM246 197v147l-49 -147h49z" />
    <glyph glyph-name="Ccedilla" unicode="&#xc7;" horiz-adv-x="446" 
d="M278 289v55h-125v-251h125v55h103v-102q0 -19 -15 -32.5t-36 -13.5h-114v-14h17q8 0 13 -4.5t5 -11.5v-47q0 -7 -5 -11.5t-13 -4.5h-17h-1h-36v32h36v15h-17q-8 0 -13.5 4.5t-5.5 11.5v30h-26h-52q-21 0 -36 13.5t-15 32.5v345q0 19 15 32.5t36 13.5h229q21 0 36 -13.5
t15 -32.5v-102h-103z" />
    <glyph glyph-name="Egrave" unicode="&#xc8;" horiz-adv-x="437" 
d="M306 570v-76l-157 33v76l157 -33v0zM392 345v93h-329v-438h329v93h-227v79h125v93h-125v80h227v0z" />
    <glyph glyph-name="Eacute" unicode="&#xc9;" horiz-adv-x="430" 
d="M141 570l157 33v-76l-157 -33v76zM384 345h-227v-80h125v-93h-125v-79h227v-93h-329v438h329v-93z" />
    <glyph glyph-name="Ecircumflex" unicode="&#xca;" horiz-adv-x="422" 
d="M376 345h-227v-80h125v-93h-125v-79h227v-93h-329v438h329v-93zM212 527l-94 -33v75l94 34l93 -34v-75z" />
    <glyph glyph-name="Edieresis" unicode="&#xcb;" horiz-adv-x="437" 
d="M384 345h-227v-80h125v-93h-125v-79h227v-93h-329v438h329v-93zM131 494v76h76v-76h-76zM253 494v76h76v-76h-76z" />
    <glyph glyph-name="Igrave" unicode="&#xcc;" horiz-adv-x="242" 
d="M198 569v-76l-158 34v76l158 -34v0zM171 438v-438h-103v438h103v0z" />
    <glyph glyph-name="Iacute" unicode="&#xcd;" horiz-adv-x="242" 
d="M35 569l158 34v-76l-158 -34v76zM62 438h103v-438h-103v438z" />
    <glyph glyph-name="Icircumflex" unicode="&#xce;" horiz-adv-x="243" 
d="M71 438h103v-438h-103v438zM123 527l-94 -34v76l94 34l93 -34v-76z" />
    <glyph glyph-name="Idieresis" unicode="&#xcf;" horiz-adv-x="289" 
d="M50 494v76h75v-76h-75zM172 494v76h76v-76h-76zM94 438h102v-438h-102v438z" />
    <glyph glyph-name="Eth" unicode="&#xd0;" horiz-adv-x="492" 
d="M374 438q21 0 36 -13.5t15 -33.5v-344q0 -20 -15 -33.5t-36 -13.5h-296v158h-63v93h63v187h296zM322 345h-141v-94h1h95v-93h-95h-1v-65h141v252z" />
    <glyph glyph-name="Ntilde" unicode="&#xd1;" horiz-adv-x="531" 
d="M459 438v-438h-90l-196 297v-297h-102v438h147l139 -210v210h102zM359 603v-9v-67l-63 -33l-62 33l-63 -33v76l63 33l62 -33z" />
    <glyph glyph-name="Ograve" unicode="&#xd2;" horiz-adv-x="477" 
d="M67 46v345q0 19 15 32.5t37 13.5h250q21 0 36 -13.5t15 -32.5v-345q0 -19 -15 -32.5t-36 -13.5h-250q-22 0 -37 13.5t-15 32.5zM317 344h-147v-251h147v251zM323 569v-76l-158 34v75z" />
    <glyph glyph-name="Oacute" unicode="&#xd3;" horiz-adv-x="476" 
d="M364 0h-250q-21 0 -36 13.5t-15 32.5v345q0 19 15 32.5t36 13.5h250q21 0 36 -13.5t15 -32.5v-345q0 -19 -15 -32.5t-36 -13.5zM166 93h146v251h-146v-251zM318 602v-75l-158 -34v76z" />
    <glyph glyph-name="Ocircumflex" unicode="&#xd4;" horiz-adv-x="492" 
d="M372 0h-250q-21 0 -36 13.5t-15 33.5v344q0 20 15 33.5t36 13.5h250q21 0 36 -13.5t15 -33.5v-344q0 -20 -15 -33.5t-36 -13.5zM174 93h146v252h-146v-252zM153 494v75l94 34l94 -34v-75l-94 33z" />
    <glyph glyph-name="Otilde" unicode="&#xd5;" horiz-adv-x="508" 
d="M335 594v-67l-63 -33l-62 33l-63 -33v75l63 34l62 -34l63 34v-9zM373 0h-250q-22 0 -37 13.5t-15 33.5v344q0 20 15 33.5t37 13.5h250q21 0 36 -13.5t15 -33.5v-344q0 -20 -15 -33.5t-36 -13.5zM174 93h147v252h-147v-252z" />
    <glyph glyph-name="Odieresis" unicode="&#xd6;" horiz-adv-x="477" 
d="M148 570h76v-76h-76v76zM270 570h76v-76h-76v76zM372 0h-250q-21 0 -36 13.5t-15 32.5v345q0 19 15 32.5t36 13.5h250q21 0 36 -13.5t15 -32.5v-345q0 -19 -15 -32.5t-36 -13.5zM174 93h146v251h-146v-251z" />
    <glyph glyph-name="multiply" unicode="&#xd7;" horiz-adv-x="322" 
d="M285 162l-59 -59l-57 56l-56 -56l-59 59l56 57l-56 56l59 59l56 -56l57 56l59 -59l-56 -56l56 -57v0z" />
    <glyph glyph-name="Oslash" unicode="&#xd8;" horiz-adv-x="508" 
d="M380 437q22 0 37 -13.5t15 -32.5v-345q0 -19 -15 -32.5t-37 -13.5h-157l-18 -57h-76l18 57h-17q-21 0 -36 13.5t-15 32.5v345q0 19 15 32.5t36 13.5h157l18 57h76l-18 -57h17zM182 108l75 236h-75v-236zM329 93v237l-76 -237h76z" />
    <glyph glyph-name="Ugrave" unicode="&#xd9;" horiz-adv-x="500" 
d="M373 0h-251q-21 0 -36 13.5t-15 32.5v393h103v-346h147v346h104v-393q0 -19 -15 -32.5t-37 -13.5zM327 571v-76l-158 33v76z" />
    <glyph glyph-name="Uacute" unicode="&#xda;" horiz-adv-x="492" 
d="M365 0h-251q-21 0 -36 13.5t-15 32.5v393h103v-346h147v346h104v-393q0 -19 -15 -32.5t-37 -13.5zM319 604v-76l-158 -33v76z" />
    <glyph glyph-name="Ucircumflex" unicode="&#xdb;" horiz-adv-x="492" 
d="M374 0h-251q-22 0 -37 13.5t-15 32.5v393h104v-346h147v346h104v-393q0 -19 -15.5 -32.5t-36.5 -13.5zM155 495v75l93 34l94 -34v-75l-94 33z" />
    <glyph glyph-name="Udieresis" unicode="&#xdc;" horiz-adv-x="469" 
d="M366 0h-251q-21 0 -36.5 13.5t-15.5 32.5v393h104v-346h147v346h104v-393q0 -19 -15 -32.5t-37 -13.5zM142 571h75v-76h-75v76zM264 571h76v-76h-76v76z" />
    <glyph glyph-name="Yacute" unicode="&#xdd;" horiz-adv-x="523" 
d="M191 569l158 34v-76l-158 -34v76zM486 437l-164 -237v-200h-103v200l-164 237h141l74 -107l74 107h142z" />
    <glyph glyph-name="agrave" unicode="&#xe0;" horiz-adv-x="485" 
d="M166 104h162l34 -104h107l-143 437h-158l-144 -437h107l35 104v0zM296 197h-98l49 147l49 -147v0zM326 569v-76l-158 33v76l158 -33v0z" />
    <glyph glyph-name="aacute" unicode="&#xe1;" horiz-adv-x="492" 
d="M362 0l-34 104h-163l-34 -104h-107l144 437h157l144 -437h-107zM247 344l-50 -147h99zM168 569l157 33v-76l-157 -33v76z" />
    <glyph glyph-name="acircumflex" unicode="&#xe2;" horiz-adv-x="492" 
d="M361 0l-34 104h-163l-34 -104h-107l144 437h157l144 -437h-107zM245 344l-49 -147h99zM245 526l-93 -33v76l93 33l94 -33v-76z" />
    <glyph glyph-name="atilde" unicode="&#xe3;" horiz-adv-x="492" 
d="M361 0l-34 104h-162l-35 -104h-107l144 437h158l143 -437h-107zM246 344l-50 -147h99zM340 602v-75l-63 -34l-63 34l-62 -34v76l62 33l63 -33z" />
    <glyph glyph-name="adieresis" unicode="&#xe4;" horiz-adv-x="484" 
d="M156 104l-34 -104h-107l143 437h158l144 -437h-107l-34 104h-163zM287 197l-50 147l-49 -147h99zM138 495v76h76v-76h-76zM261 495v76h75v-76h-75z" />
    <glyph glyph-name="ae" unicode="&#xe6;" horiz-adv-x="641" 
d="M599 344h-227v-80h125v-93h-125v-78h227v-93h-329v104h-81l-35 -104h-107l144 437h79h329v-93zM270 197v147l-49 -147h49z" />
    <glyph glyph-name="ccedilla" unicode="&#xe7;" horiz-adv-x="437" 
d="M287 289v55h-125v-251h125v55h103v-102q0 -19 -15 -32.5t-36 -13.5h-114v-14h17q8 0 13 -4.5t5 -11.5v-47q0 -7 -5 -11.5t-13 -4.5h-17h-1h-36v32h36v15h-17q-8 0 -13.5 4.5t-5.5 11.5v30h-26h-52q-21 0 -36 13.5t-15 32.5v345q0 19 15 32.5t36 13.5h229q21 0 36 -13.5
t15 -32.5v-102h-103z" />
    <glyph glyph-name="egrave" unicode="&#xe8;" horiz-adv-x="446" 
d="M306 570v-76l-157 33v76l157 -33v0zM392 345v93h-329v-438h329v93h-227v79h125v93h-125v80h227v0z" />
    <glyph glyph-name="eacute" unicode="&#xe9;" horiz-adv-x="437" 
d="M141 570l157 33v-76l-157 -33v76zM384 345h-227v-80h125v-93h-125v-79h227v-93h-329v438h329v-93z" />
    <glyph glyph-name="ecircumflex" unicode="&#xea;" horiz-adv-x="446" 
d="M392 345h-227v-80h125v-93h-125v-79h227v-93h-329v438h329v-93zM228 527l-94 -33v75l94 34l93 -34v-75z" />
    <glyph glyph-name="edieresis" unicode="&#xeb;" horiz-adv-x="406" 
d="M368 345h-227v-80h125v-93h-125v-79h227v-93h-329v438h329v-93zM115 494v76h76v-76h-76zM237 494v76h76v-76h-76z" />
    <glyph glyph-name="igrave" unicode="&#xec;" horiz-adv-x="265" 
d="M216 569v-76l-158 34v76l158 -34v0zM189 438v-438h-103v438h103v0z" />
    <glyph glyph-name="iacute" unicode="&#xed;" horiz-adv-x="243" 
d="M35 569l158 34v-76l-158 -34v76zM62 438h103v-438h-103v438z" />
    <glyph glyph-name="icircumflex" unicode="&#xee;" horiz-adv-x="218" 
d="M63 438h103v-438h-103v438zM115 527l-94 -34v76l94 34l93 -34v-76z" />
    <glyph glyph-name="idieresis" unicode="&#xef;" horiz-adv-x="274" 
d="M42 494v76h75v-76h-75zM164 494v76h76v-76h-76zM86 438h102v-438h-102v438z" />
    <glyph glyph-name="ntilde" unicode="&#xf1;" horiz-adv-x="531" 
d="M459 438v-438h-90l-196 297v-297h-102v438h147l139 -210v210h102zM359 603v-9v-67l-63 -33l-62 33l-63 -33v76l63 33l62 -33z" />
    <glyph glyph-name="ograve" unicode="&#xf2;" horiz-adv-x="424" 
d="M-4 46v345q0 19 15 32.5t37 13.5h250q21 0 36 -13.5t15 -32.5v-345q0 -19 -15 -32.5t-36 -13.5h-250q-22 0 -37 13.5t-15 32.5zM246 344h-147v-251h147v251zM252 569v-76l-158 34v75z" />
    <glyph glyph-name="oacute" unicode="&#xf3;" horiz-adv-x="424" 
d="M301 0h-250q-21 0 -36 13.5t-15 32.5v345q0 19 15 32.5t36 13.5h250q21 0 36 -13.5t15 -32.5v-345q0 -19 -15 -32.5t-36 -13.5zM103 93h146v251h-146v-251zM255 602v-75l-158 -34v76z" />
    <glyph glyph-name="ocircumflex" unicode="&#xf4;" horiz-adv-x="424" 
d="M301 0h-250q-21 0 -36 13.5t-15 33.5v344q0 20 15 33.5t36 13.5h250q21 0 36 -13.5t15 -33.5v-344q0 -20 -15 -33.5t-36 -13.5zM103 93h146v252h-146v-252zM82 494v75l94 34l94 -34v-75l-94 33z" />
    <glyph glyph-name="otilde" unicode="&#xf5;" horiz-adv-x="424" 
d="M264 594v-67l-63 -33l-62 33l-63 -33v75l63 34l62 -34l63 34v-9zM302 0h-250q-22 0 -37 13.5t-15 33.5v344q0 20 15 33.5t37 13.5h250q21 0 36 -13.5t15 -33.5v-344q0 -20 -15 -33.5t-36 -13.5zM103 93h147v252h-147v-252z" />
    <glyph glyph-name="odieresis" unicode="&#xf6;" horiz-adv-x="424" 
d="M77 570h76v-76h-76v76zM199 570h76v-76h-76v76zM301 0h-250q-21 0 -36 13.5t-15 32.5v345q0 19 15 32.5t36 13.5h250q21 0 36 -13.5t15 -32.5v-345q0 -19 -15 -32.5t-36 -13.5zM103 93h146v251h-146v-251z" />
    <glyph glyph-name="divide" unicode="&#xf7;" horiz-adv-x="358" 
d="M151 394h76v-76h-76v76zM69 177v84h243v-84h-243zM151 120h76v-76h-76v76z" />
    <glyph glyph-name="oslash" unicode="&#xf8;" horiz-adv-x="424" 
d="M301 437q22 0 37 -13.5t15 -32.5v-345q0 -19 -15 -32.5t-37 -13.5h-157l-18 -57h-76l18 57h-17q-21 0 -36 13.5t-15 32.5v345q0 19 15 32.5t36 13.5h157l18 57h76l-18 -57h17zM103 108l75 236h-75v-236zM250 93v237l-76 -237h76z" />
    <glyph glyph-name="ugrave" unicode="&#xf9;" horiz-adv-x="442" 
d="M302 0h-251q-21 0 -36 13.5t-15 32.5v393h103v-346h147v346h104v-393q0 -19 -15 -32.5t-37 -13.5zM256 571v-76l-158 33v76z" />
    <glyph glyph-name="uacute" unicode="&#xfa;" horiz-adv-x="442" 
d="M302 0h-251q-21 0 -36 13.5t-15 32.5v393h103v-346h147v346h104v-393q0 -19 -15 -32.5t-37 -13.5zM256 604v-76l-158 -33v76z" />
    <glyph glyph-name="ucircumflex" unicode="&#xfb;" horiz-adv-x="442" 
d="M303 0h-251q-22 0 -37 13.5t-15 32.5v393h104v-346h147v346h104v-393q0 -19 -15.5 -32.5t-36.5 -13.5zM84 495v75l93 34l94 -34v-75l-94 33z" />
    <glyph glyph-name="udieresis" unicode="&#xfc;" horiz-adv-x="442" 
d="M303 0h-251q-21 0 -36.5 13.5t-15.5 32.5v393h104v-346h147v346h104v-393q0 -19 -15 -32.5t-37 -13.5zM79 571h75v-76h-75v76zM201 571h76v-76h-76v76z" />
    <glyph glyph-name="yacute" unicode="&#xfd;" horiz-adv-x="538" 
d="M136 569l158 34v-76l-158 -34v76zM431 437l-164 -237v-200h-103v200l-164 237h141l74 -107l74 107h142z" />
    <glyph glyph-name="ydieresis" unicode="&#xff;" horiz-adv-x="538" 
d="M117 494v76h75v-76h-75zM239 494v76h76v-76h-76zM431 437l-164 -237v-200h-103v200l-164 237h141l75 -107l74 107h141z" />
    <glyph glyph-name="Lslash" unicode="&#x141;" horiz-adv-x="461" 
d="M230 193v-100h193v-93h-297v137l-87 -46v108l87 47v192h104v-137l87 47v-108v-1l-87 -46v0z" />
    <glyph glyph-name="lslash" unicode="&#x142;" horiz-adv-x="468" 
d="M238 193v-100h193v-93h-297v137l-87 -46v108l87 47v192h104v-137l87 47v-108v-1l-87 -46v0z" />
    <glyph glyph-name="OE" unicode="&#x152;" horiz-adv-x="767" 
d="M353 345v-80h124v-93h-124v-79h226v-93h-527q-22 0 -37 13.5t-15 33.5v344q0 20 15 33.5t37 13.5h527v-93h-226zM250 93v252h-147v-252h147z" />
    <glyph glyph-name="oe" unicode="&#x153;" horiz-adv-x="767" 
d="M353 345v-80h124v-93h-124v-79h226v-93h-527q-22 0 -37 13.5t-15 33.5v344q0 20 15 33.5t37 13.5h527v-93h-226zM250 93v252h-147v-252h147z" />
    <glyph glyph-name="Scaron" unicode="&#x160;" horiz-adv-x="406" 
d="M256 0h-256v93h205v82h-153q-22 0 -37 13.5t-15 32.5v171q0 20 15 33t37 13h256v-93h-204v-77h152q22 0 37 -13.5t15 -33.5v-175q0 -20 -15 -33t-37 -13zM248 603v-76l-94 -33l-94 33v76l94 -33z" />
    <glyph glyph-name="scaron" unicode="&#x161;" horiz-adv-x="406" 
d="M256 0h-256v93h205v82h-153q-22 0 -37 13.5t-15 32.5v171q0 20 15 33t37 13h256v-93h-204v-77h152q22 0 37 -13.5t15 -33.5v-175q0 -20 -15 -33t-37 -13zM248 603v-76l-94 -33l-94 33v76l94 -33z" />
    <glyph glyph-name="Ydieresis" unicode="&#x178;" horiz-adv-x="538" 
d="M117 494v76h75v-76h-75zM239 494v76h76v-76h-76zM431 437l-164 -237v-200h-103v200l-164 237h141l75 -107l74 107h141z" />
    <glyph glyph-name="Zcaron" unicode="&#x17d;" horiz-adv-x="414" 
d="M55 438h315v-82l-182 -263h182v-93h-315v96l176 248h-176v94zM212 569l94 34v-76l-94 -34l-93 34v76z" />
    <glyph glyph-name="zcaron" unicode="&#x17e;" horiz-adv-x="432" 
d="M61 438h315v-82l-182 -263h182v-93h-315v96l176 248h-176v94zM218 569l94 34v-76l-94 -34l-93 34v76z" />
    <glyph glyph-name="circumflex" unicode="&#x2c6;" horiz-adv-x="450" 
d="M257 494l149 -228h-108l-74 114l-74 -114h-108l149 228h66v0z" />
    <glyph glyph-name="caron" unicode="&#x2c7;" horiz-adv-x="253" 
d="M94 570l94 33v-75l-94 -34l-94 34v75l94 -33v0z" />
    <glyph glyph-name="dotaccent" unicode="&#x2d9;" horiz-adv-x="161" 
d="M-1 495v76h76v-76h-76v0z" />
    <glyph glyph-name="tilde" unicode="&#x2dc;" horiz-adv-x="383" 
d="M316 492l1 -12v-91l-86 -46l-86 45l-85 -45v103l85 46l86 -46l85 46v0z" />
    <glyph glyph-name="hungarumlaut" unicode="&#x2dd;" horiz-adv-x="298" 
d="M83 494h67l-33 -150h-67v1zM184 494h67l-34 -150h-67v1z" />
    <glyph glyph-name="endash" unicode="&#x2013;" horiz-adv-x="461" 
d="M38 261h388v-84h-388v84v0z" />
    <glyph glyph-name="emdash" unicode="&#x2014;" horiz-adv-x="563" 
d="M47 261h466v-84h-466v84v0z" />
    <glyph glyph-name="quoteleft" unicode="&#x2018;" horiz-adv-x="157" 
d="M49 457q0 16 11.5 26.5t28.5 10.5h27v-149h-67v112v0z" />
    <glyph glyph-name="quoteright" unicode="&#x2019;" horiz-adv-x="149" 
d="M106 382q0 -16 -11.5 -26.5t-28.5 -10.5h-27v149h67v-112v0z" />
    <glyph glyph-name="quotedblleft" unicode="&#x201c;" horiz-adv-x="258" 
d="M148 457q0 16 11.5 26.5t28.5 10.5h27v-149h-67v112zM47 457q0 16 12 26.5t29 10.5h26v-149h-67v112z" />
    <glyph glyph-name="quotedblright" unicode="&#x201d;" horiz-adv-x="258" 
d="M117 382q0 -16 -11.5 -26.5t-28.5 -10.5h-27v149h67v-112zM218 382q0 -16 -12 -26.5t-29 -10.5h-26v149h67v-112z" />
    <glyph glyph-name="ellipsis" unicode="&#x2026;" horiz-adv-x="528" 
d="M68 93h84v-93h-84v93v0zM225 93h84v-93h-84v93zM382 93h84v-93h-84v93z" />
    <glyph glyph-name="fraction" unicode="&#x2044;" horiz-adv-x="336" 
d="M201 675h108l-130 -438h-109l131 438v0z" />
    <glyph glyph-name="Euro" unicode="&#x20ac;" horiz-adv-x="390" 
d="M262 276v45h-103v-75h79v-76h-79v-54h103v45h84v-83q0 -16 -12.5 -27t-29.5 -11h-186q-18 0 -30 11t-12 27v92h-52v76h52v114q0 16 12 27t30 11h186q17 0 29.5 -11t12.5 -27v-84h-84z" />
    <glyph glyph-name="trademark" unicode="&#x2122;" horiz-adv-x="218" 
d="M152 437h36v-88h-23v69l-23 -37h-15l-22 37v-69h-23v88h36l17 -23zM69 437v-19h-23v-69h-23v69h-23v19h69z" />
    <glyph glyph-name="minus" unicode="&#x2212;" horiz-adv-x="465" 
d="M0 261h388v-84h-388v84v0z" />
    <glyph glyph-name="fi" unicode="&#xfb01;" horiz-adv-x="523" 
d="M71 438h382v-438h-103v345h-177v-80h126v-93h-126v-172h-102v438v0z" />
    <glyph glyph-name="fl" unicode="&#xfb02;" horiz-adv-x="680" 
d="M445 94h193v-94h-297v345h-177v-80h126v-93h-126v-172h-102v438h383v-344v0z" />
    </font>
</defs>
</svg>
